<svg width="64" height="51" viewBox="0 0 64 51" fill="none" xmlns="http://www.w3.org/2000/svg">
<g clip-path="url(#clip0_85_629)">
<path d="M63.1089 23.0639C63.1001 22.8461 62.9742 22.6358 62.7657 22.4944L41.8895 8.34343C41.2661 7.92066 40.2771 8.28706 40.2771 8.938V17.262C40.2771 17.469 40.3802 17.6675 40.5636 17.8138L43.695 20.3109C44.299 20.7923 45.3656 20.4395 45.3656 19.7592V18.0958L51.7048 22.3084H26.6423C26.1019 22.3084 25.6637 22.6578 25.6637 23.0888C25.6637 23.5198 26.1018 23.8693 26.6423 23.8693H61.1532V41.4538H54.8252C54.2847 41.4538 53.8466 41.8032 53.8466 42.2342C53.8466 42.6652 54.2845 43.0146 54.8252 43.0146H62.1318C62.6724 43.0146 63.1105 42.6653 63.1105 42.2342V23.0888C63.1105 23.0805 63.1091 23.0723 63.1089 23.0639ZM54.7621 22.3086L45.0137 15.8303C44.3885 15.4146 43.4085 15.7821 43.4085 16.4298V17.8755L42.2342 16.939V10.6257L59.4697 22.3087L54.7621 22.3086Z" fill="black"/>
<path d="M50.6502 41.4539H37.1637L32.737 34.3936C32.3833 33.8297 31.34 33.8297 30.9865 34.3936L26.5599 41.4539H2.56964V23.8693H22.4674C23.0078 23.8693 23.446 23.5199 23.446 23.0889C23.446 22.6579 23.0079 22.3085 22.4674 22.3085H12.0181L18.3573 18.0958V19.7592C18.3573 20.4393 19.424 20.7929 20.0277 20.311L23.1591 17.8138C23.3427 17.6675 23.4457 17.469 23.4457 17.2621V8.93805C23.4457 8.28711 22.4569 7.9206 21.8335 8.34347L0.957387 22.4944C0.741451 22.6408 0.612549 22.8631 0.612549 23.0889V42.2342C0.612549 42.6651 1.05065 43.0146 1.59116 43.0146H27.1645C27.5352 43.0146 27.8741 42.8475 28.0397 42.5832L31.8616 36.4876L35.6835 42.5833C35.8494 42.8476 36.188 43.0147 36.5587 43.0147H50.6501C51.1906 43.0147 51.6287 42.6653 51.6287 42.2343C51.6287 41.8032 51.1907 41.4539 50.6502 41.4539ZM21.4888 10.6256V16.9389L20.3145 17.8753V16.4297C20.3145 15.782 19.3349 15.4146 18.7095 15.8301L8.96118 22.3085H4.25331L21.4888 10.6256Z" fill="black"/>
<rect width="17.2796" height="11.1764" transform="matrix(-1 0 0 1 57.2968 27.0544)" fill="#0026AD"/>
<rect width="6.01565" height="7.92785" transform="matrix(-0.582484 -0.812842 -0.750339 0.661053 46.401 33.5409)" fill="#0026AD"/>
<rect width="5.6326" height="8.42431" transform="matrix(-1 0 0 1 42.8973 27.0544)" fill="#0026AD"/>
<path d="M56.9128 26.4707H37.0804C36.5398 26.4707 36.1017 26.8201 36.1017 27.2511V33.7602C36.1017 33.8814 36.1371 34.0009 36.205 34.1092L38.9088 38.4214C39.0746 38.6858 39.4133 38.8528 39.784 38.8528H56.9126C57.4532 38.8528 57.8913 38.5034 57.8913 38.0724V27.2511C57.8913 26.8202 57.4533 26.4707 56.9128 26.4707ZM55.9342 37.292H40.3887L38.059 33.5761V28.0315H55.9342V37.292Z" fill="black"/>
<rect x="6.42627" y="27.0544" width="17.4413" height="10.2612" fill="#AD0000"/>
<rect width="5.71521" height="7.69432" transform="matrix(0.618842 -0.785515 0.780348 0.625345 17.424 33.0098)" fill="#AD0000"/>
<rect x="20.9606" y="27.0544" width="5.68532" height="7.73451" fill="#AD0000"/>
<path d="M26.6426 26.4707H6.81021C6.26982 26.4707 5.8316 26.8201 5.8316 27.2511V38.0724C5.8316 38.5033 6.2697 38.8528 6.81021 38.8528H23.9388C24.3096 38.8528 24.6484 38.6858 24.8141 38.4214L27.5178 34.1092C27.5858 34.0008 27.6212 33.8814 27.6212 33.7602V27.2511C27.6212 26.8202 27.1831 26.4707 26.6426 26.4707ZM25.6641 33.5761L23.3343 37.292H7.78882V28.0314H25.664L25.6641 33.5761Z" fill="black"/>
</g>
<defs>
<clipPath id="clip0_85_629">
<rect x="0.612671" y="0.668335" width="62.4981" height="49.8403" fill="white"/>
</clipPath>
</defs>
</svg>
