<svg width="26" height="26" viewBox="0 0 26 26" fill="none" xmlns="http://www.w3.org/2000/svg">
<g clip-path="url(#clip0_28_978)">
<path d="M13.707 1.75343L16.5267 7.48873C16.7227 7.88762 17.1019 8.16402 17.5404 8.22789L23.8457 9.14765C24.9503 9.30888 25.3909 10.671 24.592 11.4526L20.0295 15.9168C19.7124 16.2273 19.5675 16.6748 19.6426 17.113L20.7194 23.4168C20.9082 24.5208 19.7536 25.3626 18.7659 24.8417L13.1266 21.8657C12.7344 21.6589 12.2656 21.6589 11.8734 21.8657L6.23407 24.8417C5.24637 25.3631 4.0918 24.5208 4.28057 23.4168L5.35745 17.113C5.43254 16.6748 5.28757 16.2273 4.9705 15.9168L0.408007 11.4526C-0.390912 10.6705 0.049745 9.30836 1.15426 9.14765L7.45956 8.22789C7.89813 8.16402 8.27726 7.88762 8.47333 7.48873L11.293 1.75343C11.7863 0.748858 13.2131 0.748858 13.707 1.75343Z" fill="#EDB219"/>
</g>
<defs>
<clipPath id="clip0_28_978">
<rect width="25.3157" height="25.3157" fill="white" transform="translate(0.0319824 0.396912)"/>
</clipPath>
</defs>
</svg>
