<svg width="1920" height="1080" viewBox="0 0 1920 1080" fill="none" xmlns="http://www.w3.org/2000/svg">
<mask id="mask0_23_836" style="mask-type:alpha" maskUnits="userSpaceOnUse" x="0" y="0" width="1920" height="1280">
<rect width="1920" height="1280" fill="#D9D9D9"/>
</mask>
<g mask="url(#mask0_23_836)">
<rect width="1920" height="1280" fill="url(#paint0_linear_23_836)"/>
<rect x="675.928" y="-757" width="2593" height="150" transform="rotate(55.7092 675.928 -757)" fill="url(#paint1_linear_23_836)"/>
<rect x="1667.51" y="737.899" width="147.283" height="104.594" rx="8" transform="rotate(55.7092 1667.51 737.899)" fill="#D9D9D9"/>
<rect x="1686.47" y="733.783" width="16.0296" height="14.1302" rx="3" transform="rotate(55.7092 1686.47 733.783)" fill="#D9D9D9"/>
<rect x="1582.37" y="804.771" width="16.0296" height="14.1302" rx="3" transform="rotate(55.7092 1582.37 804.771)" fill="#D9D9D9"/>
<rect x="1673.51" y="714.781" width="16.0296" height="14.1302" rx="3" transform="rotate(55.7092 1673.51 714.781)" fill="#D9D9D9"/>
<rect x="1569.41" y="785.768" width="16.0296" height="14.1302" rx="3" transform="rotate(55.7092 1569.41 785.768)" fill="#D9D9D9"/>
<rect x="1712.42" y="771.836" width="16.0296" height="14.1302" rx="3" transform="rotate(55.7092 1712.42 771.836)" fill="#D9D9D9"/>
<rect x="1608.32" y="842.824" width="16.0296" height="14.1302" rx="3" transform="rotate(55.7092 1608.32 842.824)" fill="#D9D9D9"/>
<rect x="1738.37" y="809.89" width="16.0296" height="14.1302" rx="3" transform="rotate(55.7092 1738.37 809.89)" fill="#D9D9D9"/>
<rect x="1634.27" y="880.878" width="16.0296" height="14.1302" rx="3" transform="rotate(55.7092 1634.27 880.878)" fill="#D9D9D9"/>
<rect x="1699.44" y="752.81" width="16.0296" height="14.1302" rx="3" transform="rotate(55.7092 1699.44 752.81)" fill="#D9D9D9"/>
<rect x="1595.34" y="823.797" width="16.0296" height="14.1302" rx="3" transform="rotate(55.7092 1595.34 823.797)" fill="#D9D9D9"/>
<rect x="1725.39" y="790.863" width="16.0296" height="14.1302" rx="3" transform="rotate(55.7092 1725.39 790.863)" fill="#D9D9D9"/>
<rect x="1621.29" y="861.851" width="16.0296" height="14.1302" rx="3" transform="rotate(55.7092 1621.29 861.851)" fill="#D9D9D9"/>
<rect x="1751.34" y="828.917" width="16.0296" height="14.1302" rx="3" transform="rotate(55.7092 1751.34 828.917)" fill="#D9D9D9"/>
<rect x="1647.24" y="899.904" width="16.0296" height="14.1302" rx="3" transform="rotate(55.7092 1647.24 899.904)" fill="#D9D9D9"/>
<rect x="1305.25" y="206.66" width="147.283" height="104.594" rx="8" transform="rotate(55.7092 1305.25 206.66)" fill="#D9D9D9"/>
<rect x="1324.21" y="202.544" width="16.0296" height="14.1302" rx="3" transform="rotate(55.7092 1324.21 202.544)" fill="#D9D9D9"/>
<rect x="1220.11" y="273.531" width="16.0296" height="14.1302" rx="3" transform="rotate(55.7092 1220.11 273.531)" fill="#D9D9D9"/>
<rect x="1311.25" y="183.541" width="16.0296" height="14.1302" rx="3" transform="rotate(55.7092 1311.25 183.541)" fill="#D9D9D9"/>
<rect x="1207.15" y="254.529" width="16.0296" height="14.1302" rx="3" transform="rotate(55.7092 1207.15 254.529)" fill="#D9D9D9"/>
<rect x="1350.16" y="240.597" width="16.0296" height="14.1302" rx="3" transform="rotate(55.7092 1350.16 240.597)" fill="#D9D9D9"/>
<rect x="1246.06" y="311.585" width="16.0296" height="14.1302" rx="3" transform="rotate(55.7092 1246.06 311.585)" fill="#D9D9D9"/>
<rect x="1376.11" y="278.651" width="16.0296" height="14.1302" rx="3" transform="rotate(55.7092 1376.11 278.651)" fill="#D9D9D9"/>
<rect x="1272.01" y="349.638" width="16.0296" height="14.1302" rx="3" transform="rotate(55.7092 1272.01 349.638)" fill="#D9D9D9"/>
<rect x="1337.18" y="221.57" width="16.0296" height="14.1302" rx="3" transform="rotate(55.7092 1337.18 221.57)" fill="#D9D9D9"/>
<rect x="1233.08" y="292.558" width="16.0296" height="14.1302" rx="3" transform="rotate(55.7092 1233.08 292.558)" fill="#D9D9D9"/>
<rect x="1363.13" y="259.624" width="16.0296" height="14.1302" rx="3" transform="rotate(55.7092 1363.13 259.624)" fill="#D9D9D9"/>
<rect x="1259.03" y="330.611" width="16.0296" height="14.1302" rx="3" transform="rotate(55.7092 1259.03 330.611)" fill="#D9D9D9"/>
<rect x="1389.08" y="297.677" width="16.0296" height="14.1302" rx="3" transform="rotate(55.7092 1389.08 297.677)" fill="#D9D9D9"/>
<rect x="1284.98" y="368.665" width="16.0296" height="14.1302" rx="3" transform="rotate(55.7092 1284.98 368.665)" fill="#D9D9D9"/>
<rect x="1486.09" y="471.867" width="147.283" height="104.594" rx="8" transform="rotate(55.7092 1486.09 471.867)" fill="#D9D9D9"/>
<rect x="1505.06" y="467.75" width="16.0296" height="14.1302" rx="3" transform="rotate(55.7092 1505.06 467.75)" fill="#D9D9D9"/>
<rect x="1400.96" y="538.738" width="16.0296" height="14.1302" rx="3" transform="rotate(55.7092 1400.96 538.738)" fill="#D9D9D9"/>
<rect x="1492.1" y="448.748" width="16.0296" height="14.1302" rx="3" transform="rotate(55.7092 1492.1 448.748)" fill="#D9D9D9"/>
<rect x="1388" y="519.735" width="16.0296" height="14.1302" rx="3" transform="rotate(55.7092 1388 519.735)" fill="#D9D9D9"/>
<rect x="1531.01" y="505.804" width="16.0296" height="14.1302" rx="3" transform="rotate(55.7092 1531.01 505.804)" fill="#D9D9D9"/>
<rect x="1426.91" y="576.791" width="16.0296" height="14.1302" rx="3" transform="rotate(55.7092 1426.91 576.791)" fill="#D9D9D9"/>
<rect x="1556.95" y="543.857" width="16.0296" height="14.1302" rx="3" transform="rotate(55.7092 1556.95 543.857)" fill="#D9D9D9"/>
<rect x="1452.86" y="614.845" width="16.0296" height="14.1302" rx="3" transform="rotate(55.7092 1452.86 614.845)" fill="#D9D9D9"/>
<rect x="1518.03" y="486.777" width="16.0296" height="14.1302" rx="3" transform="rotate(55.7092 1518.03 486.777)" fill="#D9D9D9"/>
<rect x="1413.93" y="557.764" width="16.0296" height="14.1302" rx="3" transform="rotate(55.7092 1413.93 557.764)" fill="#D9D9D9"/>
<rect x="1543.98" y="524.83" width="16.0296" height="14.1302" rx="3" transform="rotate(55.7092 1543.98 524.83)" fill="#D9D9D9"/>
<rect x="1439.88" y="595.818" width="16.0296" height="14.1302" rx="3" transform="rotate(55.7092 1439.88 595.818)" fill="#D9D9D9"/>
<rect x="1569.93" y="562.884" width="16.0296" height="14.1302" rx="3" transform="rotate(55.7092 1569.93 562.884)" fill="#D9D9D9"/>
<rect x="1465.83" y="633.871" width="16.0296" height="14.1302" rx="3" transform="rotate(55.7092 1465.83 633.871)" fill="#D9D9D9"/>
<rect x="1848.36" y="1003.11" width="147.283" height="104.594" rx="8" transform="rotate(55.7092 1848.36 1003.11)" fill="#D9D9D9"/>
<rect x="1867.32" y="998.99" width="16.0296" height="14.1302" rx="3" transform="rotate(55.7092 1867.32 998.99)" fill="#D9D9D9"/>
<rect x="1763.22" y="1069.98" width="16.0296" height="14.1302" rx="3" transform="rotate(55.7092 1763.22 1069.98)" fill="#D9D9D9"/>
<rect x="1854.36" y="979.987" width="16.0296" height="14.1302" rx="3" transform="rotate(55.7092 1854.36 979.987)" fill="#D9D9D9"/>
<rect x="1750.26" y="1050.97" width="16.0296" height="14.1302" rx="3" transform="rotate(55.7092 1750.26 1050.97)" fill="#D9D9D9"/>
<rect x="1893.27" y="1037.04" width="16.0296" height="14.1302" rx="3" transform="rotate(55.7092 1893.27 1037.04)" fill="#D9D9D9"/>
<rect x="1919.22" y="1075.1" width="16.0296" height="14.1302" rx="3" transform="rotate(55.7092 1919.22 1075.1)" fill="#D9D9D9"/>
<rect x="1880.29" y="1018.02" width="16.0296" height="14.1302" rx="3" transform="rotate(55.7092 1880.29 1018.02)" fill="#D9D9D9"/>
<rect x="1906.24" y="1056.07" width="16.0296" height="14.1302" rx="3" transform="rotate(55.7092 1906.24 1056.07)" fill="#D9D9D9"/>
<rect x="1123.83" y="-59.3729" width="147.283" height="104.594" rx="8" transform="rotate(55.7092 1123.83 -59.3729)" fill="#D9D9D9"/>
<rect x="1038.69" y="7.49831" width="16.0296" height="14.1302" rx="3" transform="rotate(55.7092 1038.69 7.49831)" fill="#D9D9D9"/>
<rect x="1025.74" y="-11.504" width="16.0296" height="14.1302" rx="3" transform="rotate(55.7092 1025.74 -11.504)" fill="#D9D9D9"/>
<rect x="1064.64" y="45.5518" width="16.0296" height="14.1302" rx="3" transform="rotate(55.7092 1064.64 45.5518)" fill="#D9D9D9"/>
<rect x="1194.69" y="12.6177" width="16.0296" height="14.1302" rx="3" transform="rotate(55.7092 1194.69 12.6177)" fill="#D9D9D9"/>
<rect x="1090.59" y="83.6053" width="16.0296" height="14.1302" rx="3" transform="rotate(55.7092 1090.59 83.6053)" fill="#D9D9D9"/>
<rect x="1051.67" y="26.5251" width="16.0296" height="14.1302" rx="3" transform="rotate(55.7092 1051.67 26.5251)" fill="#D9D9D9"/>
<rect x="1181.72" y="-6.40901" width="16.0296" height="14.1302" rx="3" transform="rotate(55.7092 1181.72 -6.40901)" fill="#D9D9D9"/>
<rect x="1077.62" y="64.5786" width="16.0296" height="14.1302" rx="3" transform="rotate(55.7092 1077.62 64.5786)" fill="#D9D9D9"/>
<rect x="1207.67" y="31.6445" width="16.0296" height="14.1302" rx="3" transform="rotate(55.7092 1207.67 31.6445)" fill="#D9D9D9"/>
<rect x="1103.57" y="102.632" width="16.0296" height="14.1302" rx="3" transform="rotate(55.7092 1103.57 102.632)" fill="#D9D9D9"/>
<rect x="1576.8" y="604.883" width="147.283" height="104.594" rx="8" transform="rotate(55.7092 1576.8 604.883)" fill="#D9D9D9"/>
<rect x="1595.76" y="600.767" width="16.0296" height="14.1302" rx="3" transform="rotate(55.7092 1595.76 600.767)" fill="#D9D9D9"/>
<rect x="1491.66" y="671.754" width="16.0296" height="14.1302" rx="3" transform="rotate(55.7092 1491.66 671.754)" fill="#D9D9D9"/>
<rect x="1582.8" y="581.764" width="16.0296" height="14.1302" rx="3" transform="rotate(55.7092 1582.8 581.764)" fill="#D9D9D9"/>
<rect x="1478.7" y="652.752" width="16.0296" height="14.1302" rx="3" transform="rotate(55.7092 1478.7 652.752)" fill="#D9D9D9"/>
<rect x="1621.71" y="638.82" width="16.0296" height="14.1302" rx="3" transform="rotate(55.7092 1621.71 638.82)" fill="#D9D9D9"/>
<rect x="1517.61" y="709.808" width="16.0296" height="14.1302" rx="3" transform="rotate(55.7092 1517.61 709.808)" fill="#D9D9D9"/>
<rect x="1647.66" y="676.874" width="16.0296" height="14.1302" rx="3" transform="rotate(55.7092 1647.66 676.874)" fill="#D9D9D9"/>
<rect x="1543.56" y="747.861" width="16.0296" height="14.1302" rx="3" transform="rotate(55.7092 1543.56 747.861)" fill="#D9D9D9"/>
<rect x="1608.74" y="619.793" width="16.0296" height="14.1302" rx="3" transform="rotate(55.7092 1608.74 619.793)" fill="#D9D9D9"/>
<rect x="1504.64" y="690.781" width="16.0296" height="14.1302" rx="3" transform="rotate(55.7092 1504.64 690.781)" fill="#D9D9D9"/>
<rect x="1634.69" y="657.847" width="16.0296" height="14.1302" rx="3" transform="rotate(55.7092 1634.69 657.847)" fill="#D9D9D9"/>
<rect x="1530.59" y="728.834" width="16.0296" height="14.1302" rx="3" transform="rotate(55.7092 1530.59 728.834)" fill="#D9D9D9"/>
<rect x="1660.64" y="695.9" width="16.0296" height="14.1302" rx="3" transform="rotate(55.7092 1660.64 695.9)" fill="#D9D9D9"/>
<rect x="1556.54" y="766.888" width="16.0296" height="14.1302" rx="3" transform="rotate(55.7092 1556.54 766.888)" fill="#D9D9D9"/>
<rect x="1214.54" y="73.6436" width="147.283" height="104.594" rx="8" transform="rotate(55.7092 1214.54 73.6436)" fill="#D9D9D9"/>
<rect x="1233.5" y="69.5272" width="16.0296" height="14.1302" rx="3" transform="rotate(55.7092 1233.5 69.5272)" fill="#D9D9D9"/>
<rect x="1129.4" y="140.515" width="16.0296" height="14.1302" rx="3" transform="rotate(55.7092 1129.4 140.515)" fill="#D9D9D9"/>
<rect x="1220.54" y="50.5249" width="16.0296" height="14.1302" rx="3" transform="rotate(55.7092 1220.54 50.5249)" fill="#D9D9D9"/>
<rect x="1116.44" y="121.512" width="16.0296" height="14.1302" rx="3" transform="rotate(55.7092 1116.44 121.512)" fill="#D9D9D9"/>
<rect x="1259.45" y="107.581" width="16.0296" height="14.1302" rx="3" transform="rotate(55.7092 1259.45 107.581)" fill="#D9D9D9"/>
<rect x="1155.35" y="178.568" width="16.0296" height="14.1302" rx="3" transform="rotate(55.7092 1155.35 178.568)" fill="#D9D9D9"/>
<rect x="1285.4" y="145.634" width="16.0296" height="14.1302" rx="3" transform="rotate(55.7092 1285.4 145.634)" fill="#D9D9D9"/>
<rect x="1181.3" y="216.622" width="16.0296" height="14.1302" rx="3" transform="rotate(55.7092 1181.3 216.622)" fill="#D9D9D9"/>
<rect x="1246.48" y="88.554" width="16.0296" height="14.1302" rx="3" transform="rotate(55.7092 1246.48 88.554)" fill="#D9D9D9"/>
<rect x="1142.38" y="159.542" width="16.0296" height="14.1302" rx="3" transform="rotate(55.7092 1142.38 159.542)" fill="#D9D9D9"/>
<rect x="1272.42" y="126.607" width="16.0296" height="14.1302" rx="3" transform="rotate(55.7092 1272.42 126.607)" fill="#D9D9D9"/>
<rect x="1168.32" y="197.595" width="16.0296" height="14.1302" rx="3" transform="rotate(55.7092 1168.32 197.595)" fill="#D9D9D9"/>
<rect x="1298.37" y="164.661" width="16.0296" height="14.1302" rx="3" transform="rotate(55.7092 1298.37 164.661)" fill="#D9D9D9"/>
<rect x="1194.27" y="235.649" width="16.0296" height="14.1302" rx="3" transform="rotate(55.7092 1194.27 235.649)" fill="#D9D9D9"/>
<rect x="1395.39" y="338.85" width="147.283" height="104.594" rx="8" transform="rotate(55.7092 1395.39 338.85)" fill="#D9D9D9"/>
<rect x="1414.35" y="334.734" width="16.0296" height="14.1302" rx="3" transform="rotate(55.7092 1414.35 334.734)" fill="#D9D9D9"/>
<rect x="1310.25" y="405.721" width="16.0296" height="14.1302" rx="3" transform="rotate(55.7092 1310.25 405.721)" fill="#D9D9D9"/>
<rect x="1401.39" y="315.731" width="16.0296" height="14.1302" rx="3" transform="rotate(55.7092 1401.39 315.731)" fill="#D9D9D9"/>
<rect x="1297.29" y="386.719" width="16.0296" height="14.1302" rx="3" transform="rotate(55.7092 1297.29 386.719)" fill="#D9D9D9"/>
<rect x="1440.3" y="372.787" width="16.0296" height="14.1302" rx="3" transform="rotate(55.7092 1440.3 372.787)" fill="#D9D9D9"/>
<rect x="1336.2" y="443.775" width="16.0296" height="14.1302" rx="3" transform="rotate(55.7092 1336.2 443.775)" fill="#D9D9D9"/>
<rect x="1466.25" y="410.841" width="16.0296" height="14.1302" rx="3" transform="rotate(55.7092 1466.25 410.841)" fill="#D9D9D9"/>
<rect x="1362.15" y="481.828" width="16.0296" height="14.1302" rx="3" transform="rotate(55.7092 1362.15 481.828)" fill="#D9D9D9"/>
<rect x="1427.32" y="353.76" width="16.0296" height="14.1302" rx="3" transform="rotate(55.7092 1427.32 353.76)" fill="#D9D9D9"/>
<rect x="1323.22" y="424.748" width="16.0296" height="14.1302" rx="3" transform="rotate(55.7092 1323.22 424.748)" fill="#D9D9D9"/>
<rect x="1453.27" y="391.814" width="16.0296" height="14.1302" rx="3" transform="rotate(55.7092 1453.27 391.814)" fill="#D9D9D9"/>
<rect x="1349.17" y="462.802" width="16.0296" height="14.1302" rx="3" transform="rotate(55.7092 1349.17 462.802)" fill="#D9D9D9"/>
<rect x="1479.22" y="429.867" width="16.0296" height="14.1302" rx="3" transform="rotate(55.7092 1479.22 429.867)" fill="#D9D9D9"/>
<rect x="1375.12" y="500.855" width="16.0296" height="14.1302" rx="3" transform="rotate(55.7092 1375.12 500.855)" fill="#D9D9D9"/>
<rect x="1757.65" y="870.09" width="147.283" height="104.594" rx="8" transform="rotate(55.7092 1757.65 870.09)" fill="#D9D9D9"/>
<rect x="1776.61" y="865.973" width="16.0296" height="14.1302" rx="3" transform="rotate(55.7092 1776.61 865.973)" fill="#D9D9D9"/>
<rect x="1672.51" y="936.961" width="16.0296" height="14.1302" rx="3" transform="rotate(55.7092 1672.51 936.961)" fill="#D9D9D9"/>
<rect x="1763.65" y="846.971" width="16.0296" height="14.1302" rx="3" transform="rotate(55.7092 1763.65 846.971)" fill="#D9D9D9"/>
<rect x="1659.55" y="917.958" width="16.0296" height="14.1302" rx="3" transform="rotate(55.7092 1659.55 917.958)" fill="#D9D9D9"/>
<rect x="1802.56" y="904.027" width="16.0296" height="14.1302" rx="3" transform="rotate(55.7092 1802.56 904.027)" fill="#D9D9D9"/>
<rect x="1698.46" y="975.014" width="16.0296" height="14.1302" rx="3" transform="rotate(55.7092 1698.46 975.014)" fill="#D9D9D9"/>
<rect x="1828.51" y="942.08" width="16.0296" height="14.1302" rx="3" transform="rotate(55.7092 1828.51 942.08)" fill="#D9D9D9"/>
<rect x="1724.41" y="1013.07" width="16.0296" height="14.1302" rx="3" transform="rotate(55.7092 1724.41 1013.07)" fill="#D9D9D9"/>
<rect x="1789.59" y="885" width="16.0296" height="14.1302" rx="3" transform="rotate(55.7092 1789.59 885)" fill="#D9D9D9"/>
<rect x="1685.49" y="955.988" width="16.0296" height="14.1302" rx="3" transform="rotate(55.7092 1685.49 955.988)" fill="#D9D9D9"/>
<rect x="1815.54" y="923.053" width="16.0296" height="14.1302" rx="3" transform="rotate(55.7092 1815.54 923.053)" fill="#D9D9D9"/>
<rect x="1711.44" y="994.041" width="16.0296" height="14.1302" rx="3" transform="rotate(55.7092 1711.44 994.041)" fill="#D9D9D9"/>
<rect x="1841.49" y="961.107" width="16.0296" height="14.1302" rx="3" transform="rotate(55.7092 1841.49 961.107)" fill="#D9D9D9"/>
<rect x="1737.39" y="1032.09" width="16.0296" height="14.1302" rx="3" transform="rotate(55.7092 1737.39 1032.09)" fill="#D9D9D9"/>
<rect x="-260.731" y="-686" width="2593" height="150" transform="rotate(58.0444 -260.731 -686)" fill="url(#paint2_linear_23_836)"/>
<rect x="669.114" y="848.06" width="147.283" height="104.594" rx="8" transform="rotate(58.0444 669.114 848.06)" fill="#D9D9D9"/>
<rect x="688.228" y="844.72" width="16.0296" height="14.1302" rx="3" transform="rotate(58.0444 688.228 844.72)" fill="#D9D9D9"/>
<rect x="581.322" y="911.407" width="16.0296" height="14.1302" rx="3" transform="rotate(58.0444 581.322 911.407)" fill="#D9D9D9"/>
<rect x="676.055" y="825.205" width="16.0296" height="14.1302" rx="3" transform="rotate(58.0444 676.055 825.205)" fill="#D9D9D9"/>
<rect x="569.149" y="891.892" width="16.0296" height="14.1302" rx="3" transform="rotate(58.0444 569.149 891.892)" fill="#D9D9D9"/>
<rect x="712.605" y="883.799" width="16.0296" height="14.1302" rx="3" transform="rotate(58.0444 712.605 883.799)" fill="#D9D9D9"/>
<rect x="605.7" y="950.486" width="16.0296" height="14.1302" rx="3" transform="rotate(58.0444 605.7 950.486)" fill="#D9D9D9"/>
<rect x="736.983" y="922.878" width="16.0296" height="14.1302" rx="3" transform="rotate(58.0444 736.983 922.878)" fill="#D9D9D9"/>
<rect x="630.077" y="989.565" width="16.0296" height="14.1302" rx="3" transform="rotate(58.0444 630.077 989.565)" fill="#D9D9D9"/>
<rect x="700.417" y="864.259" width="16.0296" height="14.1302" rx="3" transform="rotate(58.0444 700.417 864.259)" fill="#D9D9D9"/>
<rect x="593.511" y="930.946" width="16.0296" height="14.1302" rx="3" transform="rotate(58.0444 593.511 930.946)" fill="#D9D9D9"/>
<rect x="724.794" y="903.338" width="16.0296" height="14.1302" rx="3" transform="rotate(58.0444 724.794 903.338)" fill="#D9D9D9"/>
<rect x="617.888" y="970.026" width="16.0296" height="14.1302" rx="3" transform="rotate(58.0444 617.888 970.026)" fill="#D9D9D9"/>
<rect x="749.171" y="942.418" width="16.0296" height="14.1302" rx="3" transform="rotate(58.0444 749.171 942.418)" fill="#D9D9D9"/>
<rect x="642.266" y="1009.1" width="16.0296" height="14.1302" rx="3" transform="rotate(58.0444 642.266 1009.1)" fill="#D9D9D9"/>
<rect x="328.798" y="302.501" width="147.283" height="104.594" rx="8" transform="rotate(58.0444 328.798 302.501)" fill="#D9D9D9"/>
<rect x="347.912" y="299.161" width="16.0296" height="14.1302" rx="3" transform="rotate(58.0444 347.912 299.161)" fill="#D9D9D9"/>
<rect x="241.007" y="365.848" width="16.0296" height="14.1302" rx="3" transform="rotate(58.0444 241.007 365.848)" fill="#D9D9D9"/>
<rect x="335.739" y="279.646" width="16.0296" height="14.1302" rx="3" transform="rotate(58.0444 335.739 279.646)" fill="#D9D9D9"/>
<rect x="228.834" y="346.333" width="16.0296" height="14.1302" rx="3" transform="rotate(58.0444 228.834 346.333)" fill="#D9D9D9"/>
<rect x="372.29" y="338.24" width="16.0296" height="14.1302" rx="3" transform="rotate(58.0444 372.29 338.24)" fill="#D9D9D9"/>
<rect x="265.384" y="404.927" width="16.0296" height="14.1302" rx="3" transform="rotate(58.0444 265.384 404.927)" fill="#D9D9D9"/>
<rect x="396.667" y="377.319" width="16.0296" height="14.1302" rx="3" transform="rotate(58.0444 396.667 377.319)" fill="#D9D9D9"/>
<rect x="289.761" y="444.006" width="16.0296" height="14.1302" rx="3" transform="rotate(58.0444 289.761 444.006)" fill="#D9D9D9"/>
<rect x="360.101" y="318.701" width="16.0296" height="14.1302" rx="3" transform="rotate(58.0444 360.101 318.701)" fill="#D9D9D9"/>
<rect x="253.195" y="385.388" width="16.0296" height="14.1302" rx="3" transform="rotate(58.0444 253.195 385.388)" fill="#D9D9D9"/>
<rect x="384.478" y="357.78" width="16.0296" height="14.1302" rx="3" transform="rotate(58.0444 384.478 357.78)" fill="#D9D9D9"/>
<rect x="277.573" y="424.467" width="16.0296" height="14.1302" rx="3" transform="rotate(58.0444 277.573 424.467)" fill="#D9D9D9"/>
<rect x="408.856" y="396.859" width="16.0296" height="14.1302" rx="3" transform="rotate(58.0444 408.856 396.859)" fill="#D9D9D9"/>
<rect x="301.95" y="463.546" width="16.0296" height="14.1302" rx="3" transform="rotate(58.0444 301.95 463.546)" fill="#D9D9D9"/>
<rect x="498.692" y="574.856" width="147.283" height="104.594" rx="8" transform="rotate(58.0444 498.692 574.856)" fill="#D9D9D9"/>
<rect x="517.806" y="571.516" width="16.0296" height="14.1302" rx="3" transform="rotate(58.0444 517.806 571.516)" fill="#D9D9D9"/>
<rect x="410.9" y="638.203" width="16.0296" height="14.1302" rx="3" transform="rotate(58.0444 410.9 638.203)" fill="#D9D9D9"/>
<rect x="505.633" y="552.001" width="16.0296" height="14.1302" rx="3" transform="rotate(58.0444 505.633 552.001)" fill="#D9D9D9"/>
<rect x="398.727" y="618.689" width="16.0296" height="14.1302" rx="3" transform="rotate(58.0444 398.727 618.689)" fill="#D9D9D9"/>
<rect x="542.183" y="610.595" width="16.0296" height="14.1302" rx="3" transform="rotate(58.0444 542.183 610.595)" fill="#D9D9D9"/>
<rect x="435.277" y="677.282" width="16.0296" height="14.1302" rx="3" transform="rotate(58.0444 435.277 677.282)" fill="#D9D9D9"/>
<rect x="566.56" y="649.674" width="16.0296" height="14.1302" rx="3" transform="rotate(58.0444 566.56 649.674)" fill="#D9D9D9"/>
<rect x="459.655" y="716.362" width="16.0296" height="14.1302" rx="3" transform="rotate(58.0444 459.655 716.362)" fill="#D9D9D9"/>
<rect x="529.994" y="591.056" width="16.0296" height="14.1302" rx="3" transform="rotate(58.0444 529.994 591.056)" fill="#D9D9D9"/>
<rect x="423.089" y="657.743" width="16.0296" height="14.1302" rx="3" transform="rotate(58.0444 423.089 657.743)" fill="#D9D9D9"/>
<rect x="554.372" y="630.135" width="16.0296" height="14.1302" rx="3" transform="rotate(58.0444 554.372 630.135)" fill="#D9D9D9"/>
<rect x="447.466" y="696.822" width="16.0296" height="14.1302" rx="3" transform="rotate(58.0444 447.466 696.822)" fill="#D9D9D9"/>
<rect x="578.749" y="669.214" width="16.0296" height="14.1302" rx="3" transform="rotate(58.0444 578.749 669.214)" fill="#D9D9D9"/>
<rect x="471.843" y="735.901" width="16.0296" height="14.1302" rx="3" transform="rotate(58.0444 471.843 735.901)" fill="#D9D9D9"/>
<rect x="158.376" y="29.2977" width="147.283" height="104.594" rx="8" transform="rotate(58.0444 158.376 29.2977)" fill="#D9D9D9"/>
<rect x="177.49" y="25.9573" width="16.0296" height="14.1302" rx="3" transform="rotate(58.0444 177.49 25.9573)" fill="#D9D9D9"/>
<rect x="70.5841" y="92.6444" width="16.0296" height="14.1302" rx="3" transform="rotate(58.0444 70.5841 92.6444)" fill="#D9D9D9"/>
<rect x="165.317" y="6.4428" width="16.0296" height="14.1302" rx="3" transform="rotate(58.0444 165.317 6.4428)" fill="#D9D9D9"/>
<rect x="58.411" y="73.1299" width="16.0296" height="14.1302" rx="3" transform="rotate(58.0444 58.411 73.1299)" fill="#D9D9D9"/>
<rect x="201.867" y="65.0365" width="16.0296" height="14.1302" rx="3" transform="rotate(58.0444 201.867 65.0365)" fill="#D9D9D9"/>
<rect x="94.9614" y="131.724" width="16.0296" height="14.1302" rx="3" transform="rotate(58.0444 94.9614 131.724)" fill="#D9D9D9"/>
<rect x="226.244" y="104.116" width="16.0296" height="14.1302" rx="3" transform="rotate(58.0444 226.244 104.116)" fill="#D9D9D9"/>
<rect x="119.339" y="170.803" width="16.0296" height="14.1302" rx="3" transform="rotate(58.0444 119.339 170.803)" fill="#D9D9D9"/>
<rect x="189.678" y="45.4969" width="16.0296" height="14.1302" rx="3" transform="rotate(58.0444 189.678 45.4969)" fill="#D9D9D9"/>
<rect x="82.7727" y="112.184" width="16.0296" height="14.1302" rx="3" transform="rotate(58.0444 82.7727 112.184)" fill="#D9D9D9"/>
<rect x="214.056" y="84.5762" width="16.0296" height="14.1302" rx="3" transform="rotate(58.0444 214.056 84.5762)" fill="#D9D9D9"/>
<rect x="107.15" y="151.263" width="16.0296" height="14.1302" rx="3" transform="rotate(58.0444 107.15 151.263)" fill="#D9D9D9"/>
<rect x="238.433" y="123.655" width="16.0296" height="14.1302" rx="3" transform="rotate(58.0444 238.433 123.655)" fill="#D9D9D9"/>
<rect x="131.527" y="190.342" width="16.0296" height="14.1302" rx="3" transform="rotate(58.0444 131.527 190.342)" fill="#D9D9D9"/>
<rect x="583.903" y="711.458" width="147.283" height="104.594" rx="8" transform="rotate(58.0444 583.903 711.458)" fill="#D9D9D9"/>
<rect x="603.017" y="708.118" width="16.0296" height="14.1302" rx="3" transform="rotate(58.0444 603.017 708.118)" fill="#D9D9D9"/>
<rect x="496.111" y="774.805" width="16.0296" height="14.1302" rx="3" transform="rotate(58.0444 496.111 774.805)" fill="#D9D9D9"/>
<rect x="590.844" y="688.603" width="16.0296" height="14.1302" rx="3" transform="rotate(58.0444 590.844 688.603)" fill="#D9D9D9"/>
<rect x="483.938" y="755.29" width="16.0296" height="14.1302" rx="3" transform="rotate(58.0444 483.938 755.29)" fill="#D9D9D9"/>
<rect x="627.394" y="747.197" width="16.0296" height="14.1302" rx="3" transform="rotate(58.0444 627.394 747.197)" fill="#D9D9D9"/>
<rect x="520.488" y="813.884" width="16.0296" height="14.1302" rx="3" transform="rotate(58.0444 520.488 813.884)" fill="#D9D9D9"/>
<rect x="651.771" y="786.276" width="16.0296" height="14.1302" rx="3" transform="rotate(58.0444 651.771 786.276)" fill="#D9D9D9"/>
<rect x="544.866" y="852.963" width="16.0296" height="14.1302" rx="3" transform="rotate(58.0444 544.866 852.963)" fill="#D9D9D9"/>
<rect x="615.205" y="727.657" width="16.0296" height="14.1302" rx="3" transform="rotate(58.0444 615.205 727.657)" fill="#D9D9D9"/>
<rect x="508.3" y="794.344" width="16.0296" height="14.1302" rx="3" transform="rotate(58.0444 508.3 794.344)" fill="#D9D9D9"/>
<rect x="639.583" y="766.737" width="16.0296" height="14.1302" rx="3" transform="rotate(58.0444 639.583 766.737)" fill="#D9D9D9"/>
<rect x="532.677" y="833.424" width="16.0296" height="14.1302" rx="3" transform="rotate(58.0444 532.677 833.424)" fill="#D9D9D9"/>
<rect x="663.96" y="805.816" width="16.0296" height="14.1302" rx="3" transform="rotate(58.0444 663.96 805.816)" fill="#D9D9D9"/>
<rect x="557.054" y="872.503" width="16.0296" height="14.1302" rx="3" transform="rotate(58.0444 557.054 872.503)" fill="#D9D9D9"/>
<rect x="243.587" y="165.9" width="147.283" height="104.594" rx="8" transform="rotate(58.0444 243.587 165.9)" fill="#D9D9D9"/>
<rect x="262.701" y="162.559" width="16.0296" height="14.1302" rx="3" transform="rotate(58.0444 262.701 162.559)" fill="#D9D9D9"/>
<rect x="155.795" y="229.246" width="16.0296" height="14.1302" rx="3" transform="rotate(58.0444 155.795 229.246)" fill="#D9D9D9"/>
<rect x="250.528" y="143.045" width="16.0296" height="14.1302" rx="3" transform="rotate(58.0444 250.528 143.045)" fill="#D9D9D9"/>
<rect x="143.622" y="209.732" width="16.0296" height="14.1302" rx="3" transform="rotate(58.0444 143.622 209.732)" fill="#D9D9D9"/>
<rect x="287.078" y="201.638" width="16.0296" height="14.1302" rx="3" transform="rotate(58.0444 287.078 201.638)" fill="#D9D9D9"/>
<rect x="180.173" y="268.325" width="16.0296" height="14.1302" rx="3" transform="rotate(58.0444 180.173 268.325)" fill="#D9D9D9"/>
<rect x="311.456" y="240.718" width="16.0296" height="14.1302" rx="3" transform="rotate(58.0444 311.456 240.718)" fill="#D9D9D9"/>
<rect x="204.55" y="307.405" width="16.0296" height="14.1302" rx="3" transform="rotate(58.0444 204.55 307.405)" fill="#D9D9D9"/>
<rect x="274.89" y="182.099" width="16.0296" height="14.1302" rx="3" transform="rotate(58.0444 274.89 182.099)" fill="#D9D9D9"/>
<rect x="167.984" y="248.786" width="16.0296" height="14.1302" rx="3" transform="rotate(58.0444 167.984 248.786)" fill="#D9D9D9"/>
<rect x="299.267" y="221.178" width="16.0296" height="14.1302" rx="3" transform="rotate(58.0444 299.267 221.178)" fill="#D9D9D9"/>
<rect x="192.361" y="287.865" width="16.0296" height="14.1302" rx="3" transform="rotate(58.0444 192.361 287.865)" fill="#D9D9D9"/>
<rect x="323.644" y="260.257" width="16.0296" height="14.1302" rx="3" transform="rotate(58.0444 323.644 260.257)" fill="#D9D9D9"/>
<rect x="216.739" y="326.944" width="16.0296" height="14.1302" rx="3" transform="rotate(58.0444 216.739 326.944)" fill="#D9D9D9"/>
<rect x="413.48" y="438.255" width="147.283" height="104.594" rx="8" transform="rotate(58.0444 413.48 438.255)" fill="#D9D9D9"/>
<rect x="432.594" y="434.914" width="16.0296" height="14.1302" rx="3" transform="rotate(58.0444 432.594 434.914)" fill="#D9D9D9"/>
<rect x="325.689" y="501.601" width="16.0296" height="14.1302" rx="3" transform="rotate(58.0444 325.689 501.601)" fill="#D9D9D9"/>
<rect x="420.421" y="415.4" width="16.0296" height="14.1302" rx="3" transform="rotate(58.0444 420.421 415.4)" fill="#D9D9D9"/>
<rect x="313.516" y="482.087" width="16.0296" height="14.1302" rx="3" transform="rotate(58.0444 313.516 482.087)" fill="#D9D9D9"/>
<rect x="456.972" y="473.993" width="16.0296" height="14.1302" rx="3" transform="rotate(58.0444 456.972 473.993)" fill="#D9D9D9"/>
<rect x="350.066" y="540.68" width="16.0296" height="14.1302" rx="3" transform="rotate(58.0444 350.066 540.68)" fill="#D9D9D9"/>
<rect x="481.349" y="513.073" width="16.0296" height="14.1302" rx="3" transform="rotate(58.0444 481.349 513.073)" fill="#D9D9D9"/>
<rect x="374.443" y="579.76" width="16.0296" height="14.1302" rx="3" transform="rotate(58.0444 374.443 579.76)" fill="#D9D9D9"/>
<rect x="444.783" y="454.454" width="16.0296" height="14.1302" rx="3" transform="rotate(58.0444 444.783 454.454)" fill="#D9D9D9"/>
<rect x="337.877" y="521.141" width="16.0296" height="14.1302" rx="3" transform="rotate(58.0444 337.877 521.141)" fill="#D9D9D9"/>
<rect x="469.16" y="493.533" width="16.0296" height="14.1302" rx="3" transform="rotate(58.0444 469.16 493.533)" fill="#D9D9D9"/>
<rect x="362.255" y="560.22" width="16.0296" height="14.1302" rx="3" transform="rotate(58.0444 362.255 560.22)" fill="#D9D9D9"/>
<rect x="493.538" y="532.612" width="16.0296" height="14.1302" rx="3" transform="rotate(58.0444 493.538 532.612)" fill="#D9D9D9"/>
<rect x="386.632" y="599.299" width="16.0296" height="14.1302" rx="3" transform="rotate(58.0444 386.632 599.299)" fill="#D9D9D9"/>
<rect x="753.796" y="983.813" width="147.283" height="104.594" rx="8" transform="rotate(58.0444 753.796 983.813)" fill="#D9D9D9"/>
<rect x="772.91" y="980.473" width="16.0296" height="14.1302" rx="3" transform="rotate(58.0444 772.91 980.473)" fill="#D9D9D9"/>
<rect x="666.004" y="1047.16" width="16.0296" height="14.1302" rx="3" transform="rotate(58.0444 666.004 1047.16)" fill="#D9D9D9"/>
<rect x="760.737" y="960.958" width="16.0296" height="14.1302" rx="3" transform="rotate(58.0444 760.737 960.958)" fill="#D9D9D9"/>
<rect x="653.831" y="1027.65" width="16.0296" height="14.1302" rx="3" transform="rotate(58.0444 653.831 1027.65)" fill="#D9D9D9"/>
<rect x="797.287" y="1019.55" width="16.0296" height="14.1302" rx="3" transform="rotate(58.0444 797.287 1019.55)" fill="#D9D9D9"/>
<rect x="821.665" y="1058.63" width="16.0296" height="14.1302" rx="3" transform="rotate(58.0444 821.665 1058.63)" fill="#D9D9D9"/>
<rect x="785.099" y="1000.01" width="16.0296" height="14.1302" rx="3" transform="rotate(58.0444 785.099 1000.01)" fill="#D9D9D9"/>
<rect x="678.193" y="1066.7" width="16.0296" height="14.1302" rx="3" transform="rotate(58.0444 678.193 1066.7)" fill="#D9D9D9"/>
<rect x="809.476" y="1039.09" width="16.0296" height="14.1302" rx="3" transform="rotate(58.0444 809.476 1039.09)" fill="#D9D9D9"/>
<rect x="833.853" y="1078.17" width="16.0296" height="14.1302" rx="3" transform="rotate(58.0444 833.853 1078.17)" fill="#D9D9D9"/>
<rect x="73.1647" y="-107.304" width="147.283" height="104.594" rx="8" transform="rotate(58.0444 73.1647 -107.304)" fill="#D9D9D9"/>
<rect x="9.7502" y="-4.87812" width="16.0296" height="14.1302" rx="3" transform="rotate(58.0444 9.7502 -4.87812)" fill="#D9D9D9"/>
<rect x="34.1275" y="34.2011" width="16.0296" height="14.1302" rx="3" transform="rotate(58.0444 34.1275 34.2011)" fill="#D9D9D9"/>
<rect x="21.9389" y="14.6615" width="16.0296" height="14.1302" rx="3" transform="rotate(58.0444 21.9389 14.6615)" fill="#D9D9D9"/>
<rect x="153.222" y="-12.9464" width="16.0296" height="14.1302" rx="3" transform="rotate(58.0444 153.222 -12.9464)" fill="#D9D9D9"/>
<rect x="46.3162" y="53.7407" width="16.0296" height="14.1302" rx="3" transform="rotate(58.0444 46.3162 53.7407)" fill="#D9D9D9"/>
<path d="M1671.81 553.144L1656.89 564.088L1593.01 477.009L1817.96 311.972L1858.78 367.606C1848.11 375.433 1841.71 387.794 1841.47 401.025L1841.01 427.022C1840.77 440.568 1834.21 453.223 1823.29 461.237L1692.27 557.36L1671.81 553.144Z" stroke="#FCFCFC" stroke-width="30"/>
<rect x="1575" y="477.819" width="246.17" height="132.611" rx="3" transform="rotate(-36.2656 1575 477.819)" fill="#FCFCFC"/>
<rect x="1608.06" y="453.567" width="246.17" height="92.0254" transform="rotate(-36.2656 1608.06 453.567)" fill="#FCFCFC"/>
<g filter="url(#filter0_i_23_836)">
<rect x="1640.96" y="462.914" width="155" height="91" rx="25" transform="rotate(-36.2656 1640.96 462.914)" fill="#0062A9"/>
</g>
<path d="M2091.88 244.958L2106.8 234.014L2042.92 146.936L1817.96 311.972L1858.78 367.606C1869.45 359.779 1883.16 357.383 1895.85 361.129L1920.79 368.491C1933.78 372.326 1947.82 369.874 1958.74 361.86L2089.77 265.736L2091.88 244.958Z" stroke="#FCFCFC" stroke-width="30"/>
<rect width="246.17" height="132.611" rx="3" transform="matrix(-0.806284 0.591529 0.591529 0.806284 2049.09 130)" fill="#FCFCFC"/>
<rect width="246.17" height="92.0254" transform="matrix(-0.806284 0.591529 0.591529 0.806284 2016.04 154.253)" fill="#FCFCFC"/>
<g filter="url(#filter1_i_23_836)">
<rect width="155" height="91" rx="25" transform="matrix(-0.806284 0.591529 0.591529 0.806284 2015.08 188.444)" fill="#9E0000"/>
</g>
<path d="M1555.77 264.548L1553.91 282.954L1446.46 272.107L1474.48 -5.48221L1543.13 1.448C1541.8 14.6136 1546.7 27.6445 1556.37 36.6778L1575.37 54.4285C1585.27 63.6769 1590.28 77.0181 1588.92 90.4971L1572.6 252.175L1555.77 264.548Z" stroke="#FCFCFC" stroke-width="30"/>
<rect x="1435" y="286.027" width="246.17" height="132.611" rx="3" transform="rotate(-84.2356 1435 286.027)" fill="#FCFCFC"/>
<rect x="1439.12" y="245.234" width="246.17" height="92.0254" transform="rotate(-84.2356 1439.12 245.234)" fill="#FCFCFC"/>
<g filter="url(#filter2_i_23_836)">
<rect x="1468.09" y="227.052" width="155" height="91" rx="25" transform="rotate(-84.2356 1468.09 227.052)" fill="#0062A9"/>
</g>
<path d="M1608.1 -253.818L1609.95 -272.224L1502.5 -283.071L1474.48 -5.48221L1543.13 1.448C1544.46 -11.7176 1551.86 -23.5071 1563.14 -30.4257L1585.3 -44.0208C1596.85 -51.1041 1604.43 -63.1743 1605.79 -76.6534L1622.11 -238.332L1608.1 -253.818Z" stroke="#FCFCFC" stroke-width="30"/>
<path d="M1843.87 692.503L1826.37 686.519L1791.43 788.712L2055.43 878.965L2077.75 813.675C2065.23 809.395 2055.42 799.512 2051.24 786.957L2043.03 762.287C2038.75 749.433 2028.71 739.315 2015.89 734.933L1862.13 682.366L1843.87 692.503Z" stroke="#FCFCFC" stroke-width="30"/>
<rect width="246.17" height="132.611" rx="3" transform="matrix(0.946232 0.323488 0.323488 -0.946232 1774 793.322)" fill="#FCFCFC"/>
<rect width="246.17" height="92.0254" transform="matrix(0.946232 0.323488 0.323488 -0.946232 1812.8 806.585)" fill="#FCFCFC"/>
<g filter="url(#filter3_i_23_836)">
<rect width="155" height="91" rx="25" transform="matrix(0.946232 0.323488 0.323488 -0.946232 1841.4 787.83)" fill="#9E0000"/>
</g>
<path d="M38.1793 240.156L54.2084 230.919L108.131 324.494L-133.605 463.794L-168.056 404.01C-156.591 397.403 -148.869 385.821 -147.18 372.697L-143.86 346.908C-142.13 333.471 -134.224 321.613 -122.486 314.849L18.3103 233.716L38.1793 240.156Z" stroke="#FCFCFC" stroke-width="30"/>
<rect x="126.12" y="325.67" width="246.17" height="132.611" rx="3" transform="rotate(150.047 126.12 325.67)" fill="#FCFCFC"/>
<rect x="90.5964" y="346.14" width="246.17" height="92.0254" transform="rotate(150.047 90.5964 346.14)" fill="#FCFCFC"/>
<g filter="url(#filter4_i_23_836)">
<rect x="58.9206" y="333.231" width="155" height="91" rx="25" transform="rotate(150.047 58.9206 333.231)" fill="#0062A9"/>
</g>
<path d="M322.774 776.621L341.25 777.56L335.769 885.42L57.1286 871.261L60.6304 802.35C73.8458 803.022 86.6166 797.483 95.1571 787.376L111.939 767.515C120.683 757.167 133.758 751.496 147.288 752.183L309.579 760.43L322.774 776.621Z" stroke="#FCFCFC" stroke-width="30"/>
<rect x="350.242" y="896.169" width="246.17" height="132.611" rx="3" transform="rotate(-177.091 350.242 896.169)" fill="#FCFCFC"/>
<rect x="309.295" y="894.088" width="246.17" height="92.0254" transform="rotate(-177.091 309.295 894.088)" fill="#FCFCFC"/>
<g filter="url(#filter5_i_23_836)">
<rect x="289.692" y="866.057" width="155" height="91" rx="25" transform="rotate(-177.091 289.692 866.057)" fill="#0062A9"/>
</g>
<path d="M-197.555 750.18L-216.031 749.241L-221.512 857.102L57.1286 871.261L60.6304 802.35C47.4149 801.679 35.2714 794.874 27.7994 783.953L13.1171 762.493C5.46725 751.312 -6.96544 744.345 -20.4955 743.658L-182.786 735.411L-197.555 750.18Z" stroke="#FCFCFC" stroke-width="30"/>
<rect width="246.17" height="132.611" rx="3" transform="matrix(0.998711 0.0507497 0.0507497 -0.998711 -237 866.328)" fill="#FCFCFC"/>
<rect width="246.17" height="92.0254" transform="matrix(0.998711 0.0507497 0.0507497 -0.998711 -196.053 868.409)" fill="#FCFCFC"/>
<path d="M501.962 1074.55L515.643 1062.1L442.941 982.23L236.622 1170.04L283.07 1221.07C292.855 1212.16 306.239 1208.33 319.255 1210.72L344.829 1215.42C358.154 1217.86 371.857 1213.94 381.875 1204.82L502.043 1095.44L501.962 1074.55Z" stroke="#FCFCFC" stroke-width="30"/>
<rect width="246.17" height="132.611" rx="3" transform="matrix(-0.739495 0.673162 0.673162 0.739495 447.302 964.738)" fill="#FCFCFC"/>
<rect width="246.17" height="92.0254" transform="matrix(-0.739495 0.673162 0.673162 0.739495 416.983 992.337)" fill="#FCFCFC"/>
<g filter="url(#filter6_i_23_836)">
<rect width="155" height="91" rx="25" transform="matrix(-0.739495 0.673162 0.673162 0.739495 419.629 1026.44)" fill="#9E0000"/>
</g>
</g>
<defs>
<filter id="filter0_i_23_836" x="1650.9" y="381.171" width="163.916" height="152.172" filterUnits="userSpaceOnUse" color-interpolation-filters="sRGB">
<feFlood flood-opacity="0" result="BackgroundImageFix"/>
<feBlend mode="normal" in="SourceGraphic" in2="BackgroundImageFix" result="shape"/>
<feColorMatrix in="SourceAlpha" type="matrix" values="0 0 0 0 0 0 0 0 0 0 0 0 0 0 0 0 0 0 127 0" result="hardAlpha"/>
<feOffset dx="5" dy="7"/>
<feGaussianBlur stdDeviation="5"/>
<feComposite in2="hardAlpha" operator="arithmetic" k2="-1" k3="1"/>
<feColorMatrix type="matrix" values="0 0 0 0 0 0 0 0 0 0 0 0 0 0 0 0 0 0 0.57 0"/>
<feBlend mode="normal" in2="shape" result="effect1_innerShadow_23_836"/>
</filter>
<filter id="filter1_i_23_836" x="1900.05" y="198.388" width="163.916" height="152.172" filterUnits="userSpaceOnUse" color-interpolation-filters="sRGB">
<feFlood flood-opacity="0" result="BackgroundImageFix"/>
<feBlend mode="normal" in="SourceGraphic" in2="BackgroundImageFix" result="shape"/>
<feColorMatrix in="SourceAlpha" type="matrix" values="0 0 0 0 0 0 0 0 0 0 0 0 0 0 0 0 0 0 127 0" result="hardAlpha"/>
<feOffset dx="5" dy="7"/>
<feGaussianBlur stdDeviation="5"/>
<feComposite in2="hardAlpha" operator="arithmetic" k2="-1" k3="1"/>
<feColorMatrix type="matrix" values="0 0 0 0 0 0 0 0 0 0 0 0 0 0 0 0 0 0 0.57 0"/>
<feBlend mode="normal" in2="shape" result="effect1_innerShadow_23_836"/>
</filter>
<filter id="filter2_i_23_836" x="1470.47" y="75.2185" width="106.342" height="165.591" filterUnits="userSpaceOnUse" color-interpolation-filters="sRGB">
<feFlood flood-opacity="0" result="BackgroundImageFix"/>
<feBlend mode="normal" in="SourceGraphic" in2="BackgroundImageFix" result="shape"/>
<feColorMatrix in="SourceAlpha" type="matrix" values="0 0 0 0 0 0 0 0 0 0 0 0 0 0 0 0 0 0 127 0" result="hardAlpha"/>
<feOffset dx="5" dy="7"/>
<feGaussianBlur stdDeviation="5"/>
<feComposite in2="hardAlpha" operator="arithmetic" k2="-1" k3="1"/>
<feColorMatrix type="matrix" values="0 0 0 0 0 0 0 0 0 0 0 0 0 0 0 0 0 0 0.57 0"/>
<feBlend mode="normal" in2="shape" result="effect1_innerShadow_23_836"/>
</filter>
<filter id="filter3_i_23_836" x="1848.14" y="708.459" width="167.631" height="129.775" filterUnits="userSpaceOnUse" color-interpolation-filters="sRGB">
<feFlood flood-opacity="0" result="BackgroundImageFix"/>
<feBlend mode="normal" in="SourceGraphic" in2="BackgroundImageFix" result="shape"/>
<feColorMatrix in="SourceAlpha" type="matrix" values="0 0 0 0 0 0 0 0 0 0 0 0 0 0 0 0 0 0 127 0" result="hardAlpha"/>
<feOffset dx="5" dy="7"/>
<feGaussianBlur stdDeviation="5"/>
<feComposite in2="hardAlpha" operator="arithmetic" k2="-1" k3="1"/>
<feColorMatrix type="matrix" values="0 0 0 0 0 0 0 0 0 0 0 0 0 0 0 0 0 0 0.57 0"/>
<feBlend mode="normal" in2="shape" result="effect1_innerShadow_23_836"/>
</filter>
<filter id="filter4_i_23_836" x="-111.673" y="263.524" width="166.455" height="144.957" filterUnits="userSpaceOnUse" color-interpolation-filters="sRGB">
<feFlood flood-opacity="0" result="BackgroundImageFix"/>
<feBlend mode="normal" in="SourceGraphic" in2="BackgroundImageFix" result="shape"/>
<feColorMatrix in="SourceAlpha" type="matrix" values="0 0 0 0 0 0 0 0 0 0 0 0 0 0 0 0 0 0 127 0" result="hardAlpha"/>
<feOffset dx="5" dy="7"/>
<feGaussianBlur stdDeviation="5"/>
<feComposite in2="hardAlpha" operator="arithmetic" k2="-1" k3="1"/>
<feColorMatrix type="matrix" values="0 0 0 0 0 0 0 0 0 0 0 0 0 0 0 0 0 0 0.57 0"/>
<feBlend mode="normal" in2="shape" result="effect1_innerShadow_23_836"/>
</filter>
<filter id="filter5_i_23_836" x="136.128" y="768.544" width="161.947" height="103.277" filterUnits="userSpaceOnUse" color-interpolation-filters="sRGB">
<feFlood flood-opacity="0" result="BackgroundImageFix"/>
<feBlend mode="normal" in="SourceGraphic" in2="BackgroundImageFix" result="shape"/>
<feColorMatrix in="SourceAlpha" type="matrix" values="0 0 0 0 0 0 0 0 0 0 0 0 0 0 0 0 0 0 127 0" result="hardAlpha"/>
<feOffset dx="5" dy="7"/>
<feGaussianBlur stdDeviation="5"/>
<feComposite in2="hardAlpha" operator="arithmetic" k2="-1" k3="1"/>
<feColorMatrix type="matrix" values="0 0 0 0 0 0 0 0 0 0 0 0 0 0 0 0 0 0 0.57 0"/>
<feBlend mode="normal" in2="shape" result="effect1_innerShadow_23_836"/>
</filter>
<filter id="filter6_i_23_836" x="315.323" y="1036.76" width="160.247" height="158.002" filterUnits="userSpaceOnUse" color-interpolation-filters="sRGB">
<feFlood flood-opacity="0" result="BackgroundImageFix"/>
<feBlend mode="normal" in="SourceGraphic" in2="BackgroundImageFix" result="shape"/>
<feColorMatrix in="SourceAlpha" type="matrix" values="0 0 0 0 0 0 0 0 0 0 0 0 0 0 0 0 0 0 127 0" result="hardAlpha"/>
<feOffset dx="5" dy="7"/>
<feGaussianBlur stdDeviation="5"/>
<feComposite in2="hardAlpha" operator="arithmetic" k2="-1" k3="1"/>
<feColorMatrix type="matrix" values="0 0 0 0 0 0 0 0 0 0 0 0 0 0 0 0 0 0 0.57 0"/>
<feBlend mode="normal" in2="shape" result="effect1_innerShadow_23_836"/>
</filter>
<linearGradient id="paint0_linear_23_836" x1="1365.5" y1="-682" x2="923.5" y2="1657" gradientUnits="userSpaceOnUse">
<stop offset="0.172916" stop-color="#454444"/>
<stop offset="1"/>
</linearGradient>
<linearGradient id="paint1_linear_23_836" x1="2883.59" y1="-526.165" x2="1373.46" y2="-1370.77" gradientUnits="userSpaceOnUse">
<stop stop-color="#050505"/>
<stop offset="1" stop-color="#767676"/>
</linearGradient>
<linearGradient id="paint2_linear_23_836" x1="1813.15" y1="-220.808" x2="75.464" y2="-856.859" gradientUnits="userSpaceOnUse">
<stop offset="0.188541" stop-color="#050505"/>
<stop offset="1" stop-color="#707070"/>
</linearGradient>
</defs>
</svg>
