<svg width="40" height="33" viewBox="0 0 40 33" fill="none" xmlns="http://www.w3.org/2000/svg">
<g clip-path="url(#clip0_10_17)">
<path d="M39.6635 14.7109C39.6579 14.5726 39.5783 14.4391 39.4463 14.3493L26.2335 5.36454C25.839 5.09612 25.213 5.32875 25.213 5.74205V11.0271C25.213 11.1585 25.2782 11.2846 25.3944 11.3775L27.3762 12.963C27.7585 13.2686 28.4336 13.0446 28.4336 12.6126V11.5565L32.4457 14.2312H16.5834C16.2414 14.2312 15.964 14.453 15.964 14.7267C15.964 15.0003 16.2413 15.2222 16.5834 15.2222H38.4258V26.387H34.4207C34.0786 26.387 33.8013 26.6088 33.8013 26.8825C33.8013 27.1561 34.0785 27.378 34.4207 27.378H39.0451C39.3872 27.378 39.6645 27.1562 39.6645 26.8825V14.7267C39.6645 14.7214 39.6636 14.7162 39.6635 14.7109ZM34.3807 14.2313L28.2109 10.1181C27.8151 9.85418 27.1949 10.0875 27.1949 10.4988V11.4166L26.4517 10.8221V6.81358L37.3602 14.2314L34.3807 14.2313Z" fill="black"/>
<path d="M31.7782 26.387H23.2424L20.4407 21.9043C20.2168 21.5463 19.5565 21.5463 19.3328 21.9043L16.5311 26.387H1.34743V15.2222H13.9409C14.2829 15.2222 14.5603 15.0004 14.5603 14.7267C14.5603 14.4531 14.283 14.2312 13.9409 14.2312H7.32746L11.3396 11.5565V12.6127C11.3396 13.0444 12.0147 13.269 12.3969 12.963L14.3787 11.3775C14.4949 11.2846 14.5601 11.1586 14.5601 11.0272V5.74208C14.5601 5.32878 13.9343 5.09608 13.5397 5.36457L0.327017 14.3493C0.190348 14.4422 0.108765 14.5834 0.108765 14.7267V26.8825C0.108765 27.1561 0.386041 27.378 0.728137 27.378H16.9138C17.1484 27.378 17.3629 27.2719 17.4677 27.1041L19.8867 23.2339L22.3056 27.1041C22.4106 27.272 22.6249 27.378 22.8595 27.378H31.7781C32.1202 27.378 32.3975 27.1562 32.3975 26.8825C32.3975 26.6089 32.1203 26.387 31.7782 26.387ZM13.3216 6.81354V10.822L12.5783 11.4165V10.4987C12.5783 10.0875 11.9583 9.85415 11.5626 10.118L5.3927 14.2312H2.41304L13.3216 6.81354Z" fill="black"/>
<rect width="10.9365" height="7.09612" transform="matrix(-1 0 0 1 35.985 17.2444)" fill="#0026AD"/>
<rect width="3.81536" height="5.02459" transform="matrix(-0.581264 -0.813715 -0.749298 0.662232 29.089 21.3629)" fill="#0026AD"/>
<rect width="3.56494" height="5.34877" transform="matrix(-1 0 0 1 26.8712 17.2444)" fill="#0026AD"/>
<path d="M35.742 16.8738H23.1898C22.8477 16.8738 22.5705 17.0956 22.5705 17.3693V21.5021C22.5705 21.579 22.5929 21.6548 22.6358 21.7236L24.3471 24.4615C24.452 24.6294 24.6664 24.7354 24.901 24.7354H35.7419C36.084 24.7354 36.3613 24.5136 36.3613 24.2399V17.3693C36.3613 17.0957 36.0841 16.8738 35.742 16.8738ZM35.1226 23.7444H25.2837L23.8092 21.3851V17.8648H35.1226V23.7444Z" fill="black"/>
<rect x="3.78793" y="17.2441" width="11.0388" height="6.51507" fill="#AD0000"/>
<rect width="3.62431" height="4.87587" transform="matrix(0.617631 -0.786468 0.77938 0.626552 10.7489 21.0256)" fill="#AD0000"/>
<rect x="12.9874" y="17.2444" width="3.5983" height="4.9108" fill="#AD0000"/>
<path d="M16.5835 16.8738H4.0313C3.68928 16.8738 3.41193 17.0956 3.41193 17.3693V24.2399C3.41193 24.5135 3.6892 24.7354 4.0313 24.7354H14.8722C15.1068 24.7354 15.3213 24.6294 15.4261 24.4615L17.1374 21.7236C17.1804 21.6548 17.2028 21.579 17.2028 21.5021V17.3693C17.2028 17.0957 16.9256 16.8738 16.5835 16.8738ZM15.9642 21.3851L14.4896 23.7444H4.65067V17.8647H15.9641L15.9642 21.3851Z" fill="black"/>
</g>
<defs>
<clipPath id="clip0_10_17">
<rect width="39.5558" height="31.6446" fill="white" transform="translate(0.108795 0.491394)"/>
</clipPath>
</defs>
</svg>
