<svg width="51" height="51" viewBox="0 0 51 51" fill="none" xmlns="http://www.w3.org/2000/svg">
<g clip-path="url(#clip0_85_651)">
<path d="M11.0708 14.9519C8.78022 14.9519 6.91744 13.0891 6.91744 10.7985C6.91744 10.2253 6.45223 9.76013 5.87907 9.76013C5.30591 9.76013 4.8407 10.2253 4.8407 10.7985C4.8407 14.2333 7.63594 17.0285 11.0707 17.0285C11.6439 17.0285 12.1091 16.5633 12.1091 15.9902C12.1091 15.417 11.644 14.9519 11.0708 14.9519Z" fill="black"/>
<path d="M35.9909 14.9519C33.7003 14.9519 31.8375 13.0891 31.8375 10.7985C31.8375 10.2253 31.3723 9.76013 30.7992 9.76013C30.226 9.76013 29.7608 10.2253 29.7608 10.7985C29.7608 14.2333 32.556 17.0285 35.9908 17.0285C36.564 17.0285 37.0292 16.5633 37.0292 15.9902C37.0292 15.417 36.5641 14.9519 35.9909 14.9519Z" fill="black"/>
<path d="M50.4095 47.0864L49.4875 30.4689C49.4563 29.9206 49.0015 29.4887 48.4512 29.4887V9.76021C48.4512 9.18705 47.986 8.72184 47.4129 8.72184H46.1648C45.1992 3.98916 41.0063 0.415161 35.9912 0.415161C34.0162 0.415161 32.1846 1.00078 30.6105 1.96225C30.22 1.75871 29.732 1.80855 29.4039 2.1367C26.1642 5.37631 20.8936 5.37631 17.6561 2.1367C17.3279 1.81069 16.8399 1.75871 16.4495 1.96225C14.8755 1.00078 13.0459 0.415161 11.069 0.415161C5.34357 0.415161 0.685547 5.07318 0.685547 10.7986C0.685547 16.524 5.34357 21.182 11.069 21.182C16.7944 21.182 21.4524 16.524 21.4524 10.7986C21.4524 9.08737 20.9976 7.49667 20.2604 6.07203C21.3237 6.42296 22.4202 6.64101 23.5291 6.64101C24.6381 6.64101 25.7366 6.42296 26.7979 6.07203C26.0627 7.49871 25.6079 9.08941 25.6079 10.7986C25.6079 16.524 30.2659 21.182 35.9914 21.182C41.7168 21.182 46.3748 16.524 46.3748 10.7986V29.4887C45.8245 29.4887 45.3697 29.9206 45.3385 30.4689L44.4165 47.0844C44.3708 47.9047 44.6677 48.7187 45.2326 49.3147C45.7954 49.9128 46.5928 50.2554 47.4132 50.2554C48.2335 50.2554 49.0309 49.9128 49.5937 49.3168C50.1583 48.7187 50.4573 47.9067 50.4095 47.0864ZM11.071 19.1053C6.4899 19.1053 2.76433 15.3797 2.76433 10.7986C2.76433 6.21747 6.4899 2.4919 11.071 2.4919C15.6521 2.4919 19.3777 6.21747 19.3777 10.7986C19.3777 15.3797 15.6521 19.1053 11.071 19.1053ZM35.9912 19.1053C31.41 19.1053 27.6845 15.3797 27.6845 10.7986C27.6845 6.21747 31.41 2.4919 35.9912 2.4919C40.5723 2.4919 44.2978 6.21747 44.2978 10.7986C44.2978 15.3797 40.5723 19.1053 35.9912 19.1053Z" fill="black"/>
</g>
<defs>
<clipPath id="clip0_85_651">
<rect x="0.629517" y="0.415161" width="49.8403" height="49.8403" fill="white"/>
</clipPath>
</defs>
</svg>
