<svg width="32" height="33" viewBox="0 0 32 33" fill="none" xmlns="http://www.w3.org/2000/svg">
<g clip-path="url(#clip0_10_51)">
<path d="M6.95546 9.88547C5.5011 9.88547 4.31838 8.70275 4.31838 7.24839C4.31838 6.88448 4.02301 6.58911 3.6591 6.58911C3.29519 6.58911 2.99982 6.88448 2.99982 7.24839C2.99982 9.42922 4.77457 11.204 6.95539 11.204C7.31931 11.204 7.61468 10.9086 7.61468 10.5447C7.61468 10.1808 7.31937 9.88547 6.95546 9.88547Z" fill="black"/>
<path d="M22.7778 9.88547C21.3234 9.88547 20.1407 8.70275 20.1407 7.24839C20.1407 6.88448 19.8453 6.58911 19.4814 6.58911C19.1175 6.58911 18.8221 6.88448 18.8221 7.24839C18.8221 9.42922 20.5969 11.204 22.7777 11.204C23.1416 11.204 23.437 10.9086 23.437 10.5447C23.437 10.1808 23.1417 9.88547 22.7778 9.88547Z" fill="black"/>
<path d="M31.9317 30.2884L31.3463 19.7376C31.3265 19.3895 31.0377 19.1153 30.6883 19.1153V6.58925C30.6883 6.22534 30.393 5.92997 30.0291 5.92997H29.2366C28.6235 2.92509 25.9614 0.655884 22.7772 0.655884C21.5233 0.655884 20.3603 1.02771 19.3609 1.63816C19.113 1.50893 18.8031 1.54057 18.5948 1.74892C16.5379 3.80582 13.1915 3.80582 11.1359 1.74892C10.9275 1.54193 10.6177 1.50893 10.3698 1.63816C9.37044 1.02771 8.2088 0.655884 6.95358 0.655884C3.31841 0.655884 0.360931 3.61336 0.360931 7.24853C0.360931 10.8837 3.31841 13.8412 6.95358 13.8412C10.5888 13.8412 13.5462 10.8837 13.5462 7.24853C13.5462 6.16205 13.2575 5.15208 12.7894 4.24755C13.4645 4.47036 14.1607 4.6088 14.8648 4.6088C15.5689 4.6088 16.2664 4.47036 16.9402 4.24755C16.4734 5.15338 16.1847 6.16334 16.1847 7.24853C16.1847 10.8837 19.1421 13.8412 22.7773 13.8412C26.4125 13.8412 29.37 10.8837 29.37 7.24853V19.1153C29.0206 19.1153 28.7318 19.3895 28.712 19.7376L28.1266 30.2871C28.0976 30.808 28.2861 31.3248 28.6448 31.7032C29.0021 32.0829 29.5084 32.3005 30.0292 32.3005C30.5501 32.3005 31.0564 32.0829 31.4137 31.7045C31.7722 31.3248 31.962 30.8092 31.9317 30.2884ZM6.95488 12.5226C4.04623 12.5226 1.6808 10.1572 1.6808 7.24853C1.6808 4.33989 4.04623 1.97445 6.95488 1.97445C9.86353 1.97445 12.229 4.33989 12.229 7.24853C12.229 10.1572 9.86353 12.5226 6.95488 12.5226ZM22.7772 12.5226C19.8685 12.5226 17.5031 10.1572 17.5031 7.24853C17.5031 4.33989 19.8685 1.97445 22.7772 1.97445C25.6858 1.97445 28.0513 4.33989 28.0513 7.24853C28.0513 10.1572 25.6858 12.5226 22.7772 12.5226Z" fill="black"/>
</g>
<defs>
<clipPath id="clip0_10_51">
<rect width="31.6446" height="31.6446" fill="white" transform="translate(0.326141 0.655884)"/>
</clipPath>
</defs>
</svg>
