<svg width="118" height="17" viewBox="0 0 118 17" fill="none" xmlns="http://www.w3.org/2000/svg">
<g clip-path="url(#clip0_28_964)">
<path d="M3.77773 0.608215V5.43973L6.99157 0.608215H10.7335L5.29797 6.2704L15.2222 0.608215V4.20325L6.31146 7.61854L15.2222 6.76608V10.1814L6.31146 9.3289L15.2222 12.7442V16.3392L5.29797 10.677L10.7335 16.3392H6.9889L3.77506 11.5077V16.3392H0.69458V0.608215H3.77773Z" fill="url(#paint0_radial_28_964)"/>
<path d="M17.4199 0.608215H21.0498L20.5004 10.786L25.0104 0.608215H27.9816V16.3365H24.3517L24.9011 6.15873L20.3911 16.3365H17.4199V0.608215Z" fill="url(#paint1_radial_28_964)"/>
<path d="M30.1819 0.608215H33.8118V6.6762H36.8923V0.608215H40.5222V16.3365H36.8923V9.14643H33.8118V16.3365H30.1819V0.608215Z" fill="url(#paint2_radial_28_964)"/>
<path d="M42.1943 8.47375C42.1943 3.97995 44.2187 0.295044 48.2886 0.295044C52.3586 0.295044 54.3829 3.97995 54.3829 8.47375C54.3829 12.9675 52.3586 16.6525 48.2886 16.6525C44.2187 16.6525 42.1943 12.9675 42.1943 8.47375ZM48.2886 14.3157C49.7182 14.3157 50.5556 11.7311 50.5556 8.47375C50.5556 5.21643 49.7182 2.63182 48.2886 2.63182C46.8591 2.63182 46.0216 5.21643 46.0216 8.47375C46.0243 11.7311 46.8591 14.3157 48.2886 14.3157Z" fill="url(#paint3_radial_28_964)"/>
<path d="M56.0549 0.608215H66.5072V16.3365H62.8773V3.07844H59.6875V16.3365H56.0576V0.608215H56.0549Z" fill="url(#paint4_radial_28_964)"/>
<path d="M68.1797 8.47375C68.1797 3.97995 70.204 0.295044 74.274 0.295044C78.344 0.295044 80.3683 3.97995 80.3683 8.47375C80.3683 12.9675 78.344 16.6525 74.274 16.6525C70.204 16.6525 68.1797 12.9675 68.1797 8.47375ZM74.2767 14.3157C75.7062 14.3157 76.5437 11.7311 76.5437 8.47375C76.5437 5.21643 75.7062 2.63182 74.2767 2.63182C72.8471 2.63182 72.0096 5.21643 72.0096 8.47375C72.0096 11.7311 72.8444 14.3157 74.2767 14.3157Z" fill="url(#paint5_radial_28_964)"/>
<path d="M82.0432 0.608215H85.6731L85.1237 10.786L89.6337 0.608215H92.6049V16.3365H88.975L89.5244 6.15873L85.0143 16.3365H82.0432V0.608215Z" fill="url(#paint6_radial_28_964)"/>
<path d="M102.262 10.7861L105.716 11.3253L105.607 11.8646C105.012 14.7869 103.209 16.6498 100.238 16.6498C96.168 16.6498 94.2744 12.9649 94.2744 8.47107C94.2744 3.97727 96.168 0.292358 100.238 0.292358C103.1 0.292358 104.924 2.15797 105.564 4.89782L105.674 5.36899L102.132 6.17787C101.868 3.99906 101.23 2.62641 100.238 2.62641C98.8085 2.62641 98.1044 5.21102 98.1044 8.46834C98.1044 11.7257 98.8085 14.3103 100.238 14.3103C101.318 14.3157 101.998 12.8532 102.262 10.7861Z" fill="url(#paint7_radial_28_964)"/>
<path d="M107.212 0.608215H110.842V7.68662L113.813 0.608215H117.555L113.264 8.22588L117.665 16.3365H113.595L110.845 9.25809V16.3365H107.215V0.608215H107.212Z" fill="url(#paint8_radial_28_964)"/>
</g>
<defs>
<radialGradient id="paint0_radial_28_964" cx="0" cy="0" r="1" gradientUnits="userSpaceOnUse" gradientTransform="translate(0.694587 0.608257) rotate(2.04221) scale(140.165 20.9859)">
<stop offset="0.5" stop-color="#FF5500"/>
<stop offset="1" stop-color="#BDF700"/>
</radialGradient>
<radialGradient id="paint1_radial_28_964" cx="0" cy="0" r="1" gradientUnits="userSpaceOnUse" gradientTransform="translate(0.69463 0.608256) rotate(2.04221) scale(140.165 20.9859)">
<stop offset="0.5" stop-color="#FF5500"/>
<stop offset="1" stop-color="#BDF700"/>
</radialGradient>
<radialGradient id="paint2_radial_28_964" cx="0" cy="0" r="1" gradientUnits="userSpaceOnUse" gradientTransform="translate(0.694571 0.608256) rotate(2.04221) scale(140.165 20.9859)">
<stop offset="0.5" stop-color="#FF5500"/>
<stop offset="1" stop-color="#BDF700"/>
</radialGradient>
<radialGradient id="paint3_radial_28_964" cx="0" cy="0" r="1" gradientUnits="userSpaceOnUse" gradientTransform="translate(0.694486 0.608288) rotate(2.04221) scale(140.165 20.9859)">
<stop offset="0.5" stop-color="#FF5500"/>
<stop offset="1" stop-color="#BDF700"/>
</radialGradient>
<radialGradient id="paint4_radial_28_964" cx="0" cy="0" r="1" gradientUnits="userSpaceOnUse" gradientTransform="translate(0.694233 0.608256) rotate(2.04221) scale(140.165 20.9859)">
<stop offset="0.5" stop-color="#FF5500"/>
<stop offset="1" stop-color="#BDF700"/>
</radialGradient>
<radialGradient id="paint5_radial_28_964" cx="0" cy="0" r="1" gradientUnits="userSpaceOnUse" gradientTransform="translate(0.694377 0.608288) rotate(2.04221) scale(140.165 20.9859)">
<stop offset="0.5" stop-color="#FF5500"/>
<stop offset="1" stop-color="#BDF700"/>
</radialGradient>
<radialGradient id="paint6_radial_28_964" cx="0" cy="0" r="1" gradientUnits="userSpaceOnUse" gradientTransform="translate(0.694487 0.608256) rotate(2.04221) scale(140.165 20.9859)">
<stop offset="0.5" stop-color="#FF5500"/>
<stop offset="1" stop-color="#BDF700"/>
</radialGradient>
<radialGradient id="paint7_radial_28_964" cx="0" cy="0" r="1" gradientUnits="userSpaceOnUse" gradientTransform="translate(0.694362 0.608329) rotate(2.04221) scale(140.165 20.9859)">
<stop offset="0.5" stop-color="#FF5500"/>
<stop offset="1" stop-color="#BDF700"/>
</radialGradient>
<radialGradient id="paint8_radial_28_964" cx="0" cy="0" r="1" gradientUnits="userSpaceOnUse" gradientTransform="translate(0.694292 0.608256) rotate(2.04221) scale(140.165 20.9859)">
<stop offset="0.5" stop-color="#FF5500"/>
<stop offset="1" stop-color="#BDF700"/>
</radialGradient>
<clipPath id="clip0_28_964">
<rect width="117.085" height="16.6134" fill="white" transform="translate(0.69458 0.0499268)"/>
</clipPath>
</defs>
</svg>
